<svg xmlns="http://www.w3.org/2000/svg" width="64.805" height="51.721" viewBox="0 0 64.805 51.721">
  <path id="circle-plus-solid" d="M0,25.861C0,11.577,14.505,0,32.4,0s32.4,11.577,32.4,25.861S50.3,51.722,32.4,51.722,0,40.145,0,25.861ZM32.4,37.175c1.683,0,3.038-1.081,3.038-2.424V28.285h8.1c1.683,0,3.038-1.081,3.038-2.424s-1.354-2.424-3.038-2.424h-8.1V16.971c0-1.344-1.354-2.424-3.038-2.424s-3.038,1.081-3.038,2.424v6.465h-8.1c-1.683,0-3.038,1.081-3.038,2.424s1.354,2.424,3.038,2.424h8.1V34.75C29.365,36.094,30.719,37.175,32.4,37.175Z" fill="#fff"/>
</svg>
