<svg xmlns="http://www.w3.org/2000/svg" width="57.21" height="56.443" viewBox="0 0 57.21 56.443">
  <path id="linux-brands" d="M40.833,13.591c.135.055.244.187.406.187s.379-.044.392-.165c.027-.154-.257-.254-.433-.32a1.081,1.081,0,0,0-.744-.011c-.054.022-.108.077-.081.121C40.413,13.547,40.684,13.525,40.833,13.591Zm-2.963.187c.162,0,.271-.132.406-.187s.419-.044.474-.176c.027-.044-.027-.1-.081-.121a1.081,1.081,0,0,0-.744.011c-.176.066-.46.165-.433.32.014.11.244.165.379.154ZM67.784,44.511a4.81,4.81,0,0,1-.974-2.172,3.992,3.992,0,0,0-1.421-2.469,3.731,3.731,0,0,0-.541-.32,3.331,3.331,0,0,0-.555-.22,10.576,10.576,0,0,0-.5-8.719,29.342,29.342,0,0,0-6.291-8.2c-2.314-2.37-4.56-4.619-4.519-7.937C53.05,9.413,53.672.011,42.727,0,28.872-.022,32.336,11.4,32.187,14.9a11.343,11.343,0,0,1-3.044,7.132c-2.557,2.48-6.156,6.482-7.861,10.659a10.5,10.5,0,0,0-.839,5.875c-.879.639-1.542,1.62-2.246,2.227a6.418,6.418,0,0,1-2.3.915,4.178,4.178,0,0,0-2.5,1.6,2.4,2.4,0,0,0-.379,1.367,7.125,7.125,0,0,0,.162,1.3,4.678,4.678,0,0,1,.108,2.293c-.7,1.587-.8,2.69-.3,3.494a3.807,3.807,0,0,0,2.719,1.356c2.341.4,5.52.3,8.023,1.378a13.569,13.569,0,0,0,7.563,1.146,4.862,4.862,0,0,0,3.5-2.227c1.691-.011,3.558-.6,6.535-.728,2.016-.132,4.546.584,7.455.452a3.125,3.125,0,0,0,.338.739v.011a5.74,5.74,0,0,0,5.452,2.535,10.561,10.561,0,0,0,6.535-3.075c1.84-1.808,4.871-2.557,6.887-3.549,1-.5,1.813-1.113,1.881-2.017s-.6-1.907-2.1-3.274ZM41.225,9.623a3.359,3.359,0,0,1,5.953-.044,3.733,3.733,0,0,1-.582,4.453c-.216-.088-.8-.287-1.7-.54a2.146,2.146,0,0,0,.528-.507c.649-1.3-.027-2.976-1.231-3.009-.988-.055-1.881,1.19-1.6,2.535a11.219,11.219,0,0,0-1.759-.485A3.657,3.657,0,0,1,41.225,9.623ZM35.718,8.355c1.367,0,2.814,1.565,2.584,3.693a5.463,5.463,0,0,0-1.38.507c.162-.981-.446-2.216-1.3-2.161-1.136.077-1.326,2.337-.244,3.1.135.088.257-.022-.8.606C32.471,12.489,33.161,8.355,35.718,8.355Zm-1.84,6.691c.839-.507,1.84-1.1,1.908-1.157a5.838,5.838,0,0,1,3.775-1.565,7.552,7.552,0,0,1,3.5.981,25.765,25.765,0,0,0,3.058,1.025c1.136.386,1.854,1.069,1.421,2.006a4.6,4.6,0,0,1-3.071,2c-1.5.4-2.679,1.764-5.168,1.642a4.5,4.5,0,0,1-1.3-.231c-1.082-.386-1.651-1.146-2.706-1.653A3.571,3.571,0,0,1,33.31,16.4a1.08,1.08,0,0,1,.568-1.356Zm.446,36.817c-.365,3.869-5.94,3.792-10.188,1.984-4.045-1.742-9.281-.717-10.35-2.414-.325-.518-.325-1.4.352-2.91V48.5a4.857,4.857,0,0,0-.081-2.635,3.065,3.065,0,0,1,.122-2.2,3.1,3.1,0,0,1,2-1.246,6.679,6.679,0,0,0,2.652-1.091c.744-.628,1.285-1.422,1.935-1.984a2.746,2.746,0,0,1,2.395-.761,4.816,4.816,0,0,1,2.963,1.764l2.652,3.924c1.285,2.194,5.831,5.335,5.547,7.595Zm-.189-2.855a24.635,24.635,0,0,0-1.948-2.161,2.346,2.346,0,0,0,2.259-.981c.311-.683,0-1.642-1-2.745a19.63,19.63,0,0,0-5.182-3.583,6.381,6.381,0,0,1-3.328-3.3,6.134,6.134,0,0,1-.041-3.88,21.281,21.281,0,0,1,3.68-6.526c.311-.187.108.353-1.177,2.293-1.15,1.775-3.3,5.875-.352,9.083a16.133,16.133,0,0,1,1.867-6.779c1.624-3.02,5.047-8.256,5.317-12.423.149.088.622.353.839.452a15.538,15.538,0,0,1,1.7,1.135,5.891,5.891,0,0,0,5.737.132,16.134,16.134,0,0,1,2.151-.992,5.955,5.955,0,0,0,3.017-1.653,51.169,51.169,0,0,0,5.033,10.549A22.179,22.179,0,0,1,55.9,34.756a6.542,6.542,0,0,1,1.475.154c1.867-3.935-1.583-8.179-3.152-9.359-.636-.507-.663-.728-.352-.717a13.467,13.467,0,0,1,4.762,6.5,6.835,6.835,0,0,1,.054,3.935c2.219.75,4.857,1.973,4.154,3.836-.3-.011-.433,0-.568,0,.433-1.113-.528-1.94-3.085-2.877-2.652-.948-4.871-.948-5.182,1.378a4.107,4.107,0,0,0-2.9,3.009,20.033,20.033,0,0,0-.6,4.4,14.624,14.624,0,0,1-.92,3.2c-4.343,2.524-10.377,3.627-15.464.794Zm34.825-1.268c-.122,1.852-5.574,2.194-8.551,5.126a9.664,9.664,0,0,1-5.9,2.811,4.674,4.674,0,0,1-4.56-2.127c-.636-1.224-.325-2.546.149-4a23.218,23.218,0,0,0,1.339-4.475,20.418,20.418,0,0,1,.568-4.266,3.386,3.386,0,0,1,1.854-2.326c.041-.022.095-.033.135-.055a3.433,3.433,0,0,0,2.544,3.252c1.7.364,4.154-.827,5.2-1.8a4.519,4.519,0,0,1,3.058.562c1.339.937.961,3.34,2.314,4.586C68.542,46.308,69,47.179,68.961,47.741ZM34.406,16.391c.271.209.636.5,1.082.783a6.791,6.791,0,0,0,3.694,1.168,11.112,11.112,0,0,0,4.3-1.19,12.365,12.365,0,0,0,2-1.146c.528-.375.8-.694.419-.728s-.352.287-.812.562c-.6.353-1.312.816-1.881,1.08a10.673,10.673,0,0,1-4.045,1.124A6.155,6.155,0,0,1,35.8,16.975c-.419-.276-.771-.551-1.042-.761-.2-.154-.257-.507-.582-.54-.189-.011-.244.408.23.716Z" transform="translate(-12.674 0)" fill="#fff"/>
</svg>
