<svg xmlns="http://www.w3.org/2000/svg" width="49.612" height="56.443" viewBox="0 0 49.612 56.443">
  <path id="apple-whole-solid" d="M37.355,14.111c-3.558,0-8.9,1.767-12.452,3.531-3.559-1.764-8.794-3.53-12.352-3.531C3.558,14.111.046,23.206,0,31.749-.059,42.77,7.114,56.443,17.688,56.443c3.558,0,5.336-1.764,7.115-1.764s3.558,1.764,7.115,1.764c10.673,0,17.832-13.538,17.688-24.694C49.773,23.327,46.249,14.111,37.355,14.111ZM35.576,3.528V0H32.018a8.856,8.856,0,0,0-8.894,8.819v3.528h3.558A8.856,8.856,0,0,0,35.576,3.528Z" transform="translate(0)" fill="#fff"/>
</svg>
