<svg xmlns="http://www.w3.org/2000/svg" width="35.557" height="30" viewBox="0 0 35.557 30">
  <path id="circle-plus-solid" d="M0,15C0,6.715,7.959,0,17.778,0S35.557,6.715,35.557,15,27.6,30,17.778,30,0,23.285,0,15Zm17.778,6.562a1.549,1.549,0,0,0,1.667-1.406v-3.75H23.89A1.549,1.549,0,0,0,25.557,15a1.549,1.549,0,0,0-1.667-1.406H19.445V9.844a1.549,1.549,0,0,0-1.667-1.406,1.549,1.549,0,0,0-1.667,1.406v3.75H11.667A1.549,1.549,0,0,0,10,15a1.549,1.549,0,0,0,1.667,1.406h4.445v3.75A1.549,1.549,0,0,0,17.778,21.562Z" fill="#fff"/>
</svg>
